<svg fill="none" height="24" viewBox="0 0 24 24" width="24" xmlns="http://www.w3.org/2000/svg"><path clip-rule="evenodd" d="m7.66537 1.99988h8.66903c3.389 0 5.666 2.378 5.666 5.916v8.16802c0 3.538-2.278 5.916-5.667 5.916h-5.38c-.414 0-.75-.336-.75-.75s.336-.75.75-.75h5.38c2.531 0 4.167-1.733 4.167-4.416v-8.16802c0-2.683-1.636-4.416-4.166-4.416h-8.66903c-2.53 0-4.165 1.733-4.165 4.416v8.16802c0 2.683 1.635 4.416 4.165 4.416.414 0 .75.336.75.75s-.336.75-.75.75c-3.389 0-5.665-2.378-5.665-5.916v-8.16802c0-3.538 2.276-5.916 5.665-5.916zm-1.198 8.93262c.17-.378.612-.547.992-.376.378.169.546.613.376.991-.064.143-.096.295-.096.452 0 .608.494 1.102 1.101 1.102.608 0 1.102-.494 1.102-1.102 0-.607-.494-1.101-1.102-1.101-.414 0-.75-.336-.75-.75 0-.41402.336-.75002.75-.75002 1.17303 0 2.15403.78402 2.47803 1.85102h5.692c.414 0 .75.336.75.75v1.852c0 .414-.336.75-.75.75s-.75-.336-.75-.75v-1.102h-1.329v1.102c0 .414-.336.75-.75.75s-.75-.336-.75-.75v-1.102h-2.113c-.324 1.068-1.305 1.852-2.47803 1.852-1.434 0-2.601-1.167-2.601-2.602 0-.371.076-.729.228-1.067z" fill="#000" fill-rule="evenodd"/></svg>